<svg width="76" height="76" viewBox="0 0 76 76" fill="none" xmlns="http://www.w3.org/2000/svg">
<rect x="1" y="1" width="74" height="74" rx="14.5" stroke="#E2E8F0"/>
<path d="M43.6379 30.7846C41.1967 30.7846 40.165 31.9495 38.4648 31.9495C36.7217 31.9495 35.392 30.7931 33.2765 30.7931C31.2058 30.7931 28.9977 32.0573 27.5954 34.211C25.6264 37.248 25.9607 42.9678 29.1497 47.8407C30.2904 49.585 31.8137 51.5413 33.8118 51.5625H33.8481C35.5846 51.5625 36.1004 50.4254 38.4902 50.4121H38.5266C40.8806 50.4121 41.3529 51.5558 43.0821 51.5558H43.1184C45.1165 51.5346 46.7216 49.367 47.8623 47.6294C48.6833 46.3797 48.9884 45.7524 49.6181 44.3386C45.0051 42.5876 44.264 36.0479 48.8262 33.5407C47.4336 31.797 45.4767 30.787 43.6319 30.787L43.6379 30.7846Z" fill="#2D3748"/>
<path d="M43.1008 24.439C41.6477 24.5377 39.9524 25.4629 38.9594 26.6708C38.0585 27.7655 37.3174 29.3893 37.608 30.9642H37.7243C39.2719 30.9642 40.8558 30.0323 41.7809 28.8384C42.6722 27.7019 43.3479 26.0913 43.1008 24.439Z" fill="#2D3748"/>
</svg>
