<svg width="12" height="12" viewBox="0 0 12 12" fill="none" xmlns="http://www.w3.org/2000/svg">
<g clip-path="url(#clip0_92_198)">
<path d="M9.97247 3.67547C9.98545 3.6679 9.99621 3.65707 10.0037 3.64404C10.0112 3.63102 10.0151 3.61626 10.0151 3.60124C10.0151 3.58622 10.0112 3.57147 10.0037 3.55844C9.99621 3.54542 9.98545 3.53458 9.97247 3.52701L6.69095 1.62049C6.48098 1.49879 6.2426 1.43469 5.99991 1.43469C5.75722 1.43469 5.51883 1.49879 5.30886 1.62049L2.02798 3.52701C2.01501 3.53458 2.00425 3.54542 1.99677 3.55844C1.98929 3.57147 1.98535 3.58622 1.98535 3.60124C1.98535 3.61626 1.98929 3.63102 1.99677 3.64404C2.00425 3.65707 2.01501 3.6679 2.02798 3.67547L5.95704 5.98676C5.97026 5.99454 5.98532 5.99865 6.00066 5.99865C6.016 5.99865 6.03105 5.99454 6.04427 5.98676L9.97247 3.67547Z" fill="white"/>
<path d="M1.66016 4.25981C1.64705 4.25224 1.63218 4.24827 1.61705 4.24829C1.60192 4.24832 1.58706 4.25234 1.57398 4.25994C1.5609 4.26755 1.55006 4.27848 1.54256 4.29162C1.53505 4.30476 1.53115 4.31965 1.53125 4.33479V8.0707C1.53158 8.25074 1.57903 8.42755 1.66888 8.58355C1.75874 8.73956 1.88787 8.86932 2.04344 8.95994L5.52735 11.0489C5.5404 11.0564 5.55521 11.0604 5.57029 11.0604C5.58537 11.0604 5.60018 11.0564 5.61325 11.0489C5.62631 11.0414 5.63716 11.0305 5.64471 11.0175C5.65225 11.0044 5.65624 10.9896 5.65625 10.9745V6.64006C5.65624 6.62499 5.65226 6.61019 5.64472 6.59714C5.63717 6.58409 5.62633 6.57326 5.61328 6.56572L1.66016 4.25981Z" fill="white"/>
<path d="M6.34375 6.65509V10.9734C6.34377 10.9885 6.34775 11.0033 6.3553 11.0164C6.36285 11.0294 6.3737 11.0403 6.38676 11.0478C6.39982 11.0553 6.41463 11.0593 6.42971 11.0593C6.44479 11.0593 6.4596 11.0553 6.47266 11.0478L9.95635 8.95886C10.1118 8.86836 10.2409 8.73878 10.3308 8.58298C10.4206 8.42717 10.4682 8.25057 10.4687 8.0707V4.33478C10.4687 4.31972 10.4647 4.30494 10.4571 4.29192C10.4496 4.2789 10.4387 4.26809 10.4256 4.26058C10.4126 4.25308 10.3978 4.24913 10.3827 4.24915C10.3677 4.24916 10.3529 4.25313 10.3398 4.26066L6.38672 6.58097C6.3737 6.58849 6.36288 6.59929 6.35534 6.61229C6.3478 6.6253 6.3438 6.64006 6.34375 6.65509Z" fill="white"/>
</g>
<defs>
<clipPath id="clip0_92_198">
<rect width="11" height="11" fill="white" transform="translate(0.5 0.747681)"/>
</clipPath>
</defs>
</svg>
