<svg width="76" height="76" viewBox="0 0 76 76" fill="none" xmlns="http://www.w3.org/2000/svg">
<rect x="1" y="1" width="74" height="74" rx="14.5" stroke="#E2E8F0"/>
<g clip-path="url(#clip0_92_240)">
<path d="M50.9173 38C50.9173 30.87 45.1307 25.0833 38.0007 25.0833C30.8707 25.0833 25.084 30.87 25.084 38C25.084 44.2516 29.5273 49.4571 35.4173 50.6583V41.875H32.834V38H35.4173V34.7708C35.4173 32.2779 37.4452 30.25 39.9382 30.25H43.1673V34.125H40.584C39.8736 34.125 39.2923 34.7062 39.2923 35.4166V38H43.1673V41.875H39.2923V50.8521C45.8152 50.2062 50.9173 44.7037 50.9173 38Z" fill="#2D3748"/>
</g>
<defs>
<clipPath id="clip0_92_240">
<rect width="31" height="31" fill="white" transform="translate(22.5 22.5)"/>
</clipPath>
</defs>
</svg>
