<svg width="76" height="76" viewBox="0 0 76 76" fill="none" xmlns="http://www.w3.org/2000/svg">
<rect x="1" y="1" width="74" height="74" rx="14.5" stroke="#E2E8F0"/>
<path d="M48.1794 36.3817L48.0734 35.9322H38.3028V40.0675H44.1406C43.5345 42.9457 40.722 44.4607 38.4247 44.4607C36.7531 44.4607 34.9911 43.7575 33.8248 42.6274C33.2095 42.0216 32.7197 41.3004 32.3835 40.505C32.0473 39.7097 31.8713 38.8558 31.8655 37.9924C31.8655 36.2505 32.6483 34.5082 33.7873 33.3621C34.9264 32.216 36.6467 31.5747 38.3572 31.5747C40.3161 31.5747 41.72 32.6149 42.245 33.0893L45.1836 30.1661C44.3216 29.4086 41.9534 27.4999 38.2625 27.4999C35.4148 27.4999 32.6844 28.5907 30.6884 30.58C28.7187 32.5389 27.6992 35.3716 27.6992 37.9999C27.6992 40.6282 28.6639 43.3192 30.5727 45.2936C32.6122 47.3992 35.5006 48.4999 38.4748 48.4999C41.1809 48.4999 43.7459 47.4396 45.5741 45.5158C47.3712 43.6221 48.3008 41.0017 48.3008 38.2549C48.3008 37.0985 48.1845 36.4117 48.1794 36.3817Z" fill="#2D3748"/>
</svg>
