<svg width="10" height="10" viewBox="0 0 10 10" fill="none" xmlns="http://www.w3.org/2000/svg">
<path d="M4.18574 3.33959C4.18574 3.61889 4.18574 3.88959 4.27383 4.14311C3.34785 5.23021 0.90293 8.10267 0.675195 8.32182C0.629934 8.36243 0.593726 8.41211 0.568926 8.46763C0.544126 8.52315 0.531289 8.58327 0.53125 8.64408C0.53125 8.8267 0.642969 9.00287 0.7375 9.1017C0.879297 9.24994 1.48516 9.81068 1.59687 9.70326C1.92773 9.38099 1.99434 9.29506 2.12969 9.16185C2.33379 8.96205 2.1082 8.55385 2.1791 8.38842C2.25 8.22299 2.3252 8.19076 2.44766 8.16498C2.57012 8.1392 2.78711 8.22728 2.95684 8.22943C3.13516 8.23158 3.23184 8.15639 3.36504 8.03178C3.47246 7.93295 3.5498 7.84057 3.55195 7.69662C3.55625 7.50326 3.27695 7.2476 3.48535 7.0435C3.69375 6.83939 3.99453 7.1767 4.21582 7.15092C4.43711 7.12514 4.70566 6.81791 4.73359 6.68685C4.76152 6.5558 4.48223 6.21849 4.52519 6.02728C4.54023 5.96283 4.67129 5.81244 4.77012 5.79096C4.86894 5.76947 5.30723 5.9392 5.40605 5.91771C5.52637 5.89193 5.66601 5.76517 5.77988 5.69428C6.11289 5.83822 6.41582 5.89623 6.80469 5.89623C8.27637 5.89623 9.46875 4.74896 9.46875 3.33529C9.46875 1.92162 8.27637 0.779297 6.80469 0.779297C5.33301 0.779297 4.18574 1.92592 4.18574 3.33959ZM8.09375 2.8418C8.09375 2.97777 8.05343 3.11069 7.97788 3.22375C7.90234 3.33681 7.79497 3.42493 7.66934 3.47696C7.54372 3.529 7.40549 3.54261 7.27212 3.51609C7.13876 3.48956 7.01626 3.42408 6.92011 3.32793C6.82397 3.23178 6.75849 3.10928 6.73196 2.97592C6.70543 2.84256 6.71905 2.70433 6.77108 2.5787C6.82312 2.45308 6.91124 2.3457 7.02429 2.27016C7.13735 2.19462 7.27027 2.1543 7.40625 2.1543C7.58859 2.1543 7.76345 2.22673 7.89239 2.35566C8.02132 2.48459 8.09375 2.65946 8.09375 2.8418Z" fill="white"/>
</svg>
