<svg width="11" height="12" viewBox="0 0 11 12" fill="none" xmlns="http://www.w3.org/2000/svg">
<path d="M5.5 1.77844C3.03596 1.77844 1.03125 3.78315 1.03125 6.24719C1.03125 8.71123 3.03596 10.7159 5.5 10.7159C7.96404 10.7159 9.96875 8.71123 9.96875 6.24719C9.96875 3.78315 7.96404 1.77844 5.5 1.77844ZM4.42105 4.28825C4.69326 3.99971 5.07633 3.84094 5.5 3.84094C5.92367 3.84094 6.3033 4.00079 6.57658 4.29083C6.85351 4.58473 6.98822 4.97961 6.95643 5.40415C6.89283 6.24719 6.23971 6.93469 5.5 6.93469C4.76029 6.93469 4.10588 6.24719 4.04357 5.40393C4.01199 4.97596 4.14648 4.57979 4.42105 4.28825ZM5.5 10.0284C4.99522 10.0288 4.49551 9.92774 4.0305 9.73133C3.5655 9.53492 3.14467 9.24714 2.79297 8.88504C2.9944 8.59779 3.25105 8.35355 3.54793 8.16661C4.09557 7.81555 4.78865 7.62219 5.5 7.62219C6.21135 7.62219 6.90443 7.81555 7.45143 8.16661C7.74855 8.35347 8.00543 8.59771 8.20703 8.88504C7.85536 9.24718 7.43454 9.53499 6.96953 9.7314C6.50451 9.92781 6.00479 10.0288 5.5 10.0284Z" fill="white"/>
</svg>
